<svg width="668" height="672" viewBox="0 0 668 672" fill="none" xmlns="http://www.w3.org/2000/svg">
<path d="M332 385.5C359.338 385.5 381.5 363.338 381.5 336C381.5 308.662 359.338 286.5 332 286.5C304.662 286.5 282.5 308.662 282.5 336C282.5 363.338 304.662 385.5 332 385.5Z" stroke="#8DFD1B"/>
<path d="M332.5 415.5C376.683 415.5 412.5 379.683 412.5 335.5C412.5 291.317 376.683 255.5 332.5 255.5C288.317 255.5 252.5 291.317 252.5 335.5C252.5 379.683 288.317 415.5 332.5 415.5Z" stroke="#8DFD1B"/>
<path d="M331.605 464.71C402.908 464.71 460.71 406.908 460.71 335.605C460.71 264.302 402.908 206.5 331.605 206.5C260.302 206.5 202.5 264.302 202.5 335.605C202.5 406.908 260.302 464.71 331.605 464.71Z" stroke="#8DFD1B" stroke-opacity="0.75"/>
<path d="M331.664 543.828C446.63 543.828 539.828 450.63 539.828 335.664C539.828 220.698 446.63 127.5 331.664 127.5C216.698 127.5 123.5 220.698 123.5 335.664C123.5 450.63 216.698 543.828 331.664 543.828Z" stroke="#8DFD1B" stroke-opacity="0.5"/>
<path d="M331.951 671.402C517.215 671.402 667.402 521.215 667.402 335.951C667.402 150.687 517.215 0.5 331.951 0.5C146.687 0.5 -3.5 150.687 -3.5 335.951C-3.5 521.215 146.687 671.402 331.951 671.402Z" stroke="#8DFD1B" stroke-opacity="0.25"/>
</svg>
